<?xml version="1.0" encoding="UTF-8"?>
<svg xmlns="http://www.w3.org/2000/svg" xmlns:xlink="http://www.w3.org/1999/xlink" width="64px" height="64px" viewBox="0 0 64 64" version="1.1">
<g id="surface1">
<path style=" stroke:none;fill-rule:nonzero;fill:#0092FF;fill-opacity:1;" d="M 56 28.445312 C 54.933594 28.445312 53.867188 28.621094 52.800781 29.15625 C 53.15625 28.445312 53.332031 27.554688 53.332031 26.667969 C 53.332031 22.753906 50.132812 19.554688 46.222656 19.554688 C 44.621094 19.554688 43.378906 20.089844 42.132812 20.800781 C 40.355469 14.042969 34.132812 8.890625 26.667969 8.890625 C 17.777344 8.890625 10.667969 16 10.667969 24.890625 C 10.667969 25.601562 10.667969 26.3125 10.84375 26.84375 C 10.132812 26.667969 9.601562 26.667969 8.890625 26.667969 C 3.910156 26.667969 0 30.578125 0 35.554688 C 0 40.535156 3.910156 44.445312 8.890625 44.445312 L 56 44.445312 C 60.445312 44.445312 64 40.890625 64 36.445312 C 64 32 60.445312 28.445312 56 28.445312 Z M 56 28.445312 "/>
</g>
</svg>
