<?xml version="1.0" encoding="UTF-8"?>
<svg xmlns="http://www.w3.org/2000/svg" xmlns:xlink="http://www.w3.org/1999/xlink" width="64px" height="64px" viewBox="0 0 64 64" version="1.1">
<g id="surface1">
<path style=" stroke:none;fill-rule:nonzero;fill:rgb(0%,57.254902%,100%);fill-opacity:1;" d="M 32.800781 58.667969 L 32.535156 58.667969 C 25.144531 58.609375 18.089844 55.582031 12.960938 50.265625 C 3.207031 39.835938 2.90625 23.71875 12.265625 12.933594 C 15.179688 9.671875 18.839844 7.164062 22.933594 5.625 C 23.910156 5.25 25.015625 5.480469 25.761719 6.214844 C 26.449219 6.917969 26.695312 7.941406 26.398438 8.878906 C 23.417969 17.050781 25.433594 26.210938 31.574219 32.375 C 37.769531 38.492188 46.929688 40.503906 55.121094 37.546875 C 56.09375 37.203125 57.179688 37.453125 57.90625 38.191406 C 58.632812 38.929688 58.863281 40.015625 58.507812 40.988281 C 57.144531 44.625 55.015625 47.925781 52.265625 50.667969 C 47.101562 55.816406 40.09375 58.695312 32.800781 58.667969 Z M 32.800781 58.667969 "/>
</g>
</svg>
