<?xml version="1.0" encoding="UTF-8"?>
<svg xmlns="http://www.w3.org/2000/svg" xmlns:xlink="http://www.w3.org/1999/xlink" width="64px" height="64px" viewBox="0 0 64 64" version="1.1">
<g id="surface1">
<path style=" stroke:none;fill-rule:nonzero;fill:rgb(0%,57.254902%,100%);fill-opacity:1;" d="M 62.078125 49.601562 C 62.550781 50.496094 62.773438 51.339844 62.753906 52.128906 C 62.730469 52.917969 62.496094 53.601562 62.046875 54.175781 C 61.601562 54.753906 60.96875 55.210938 60.160156 55.550781 C 59.347656 55.894531 58.410156 56.0625 57.34375 56.0625 L 7.550781 56.0625 C 6.398438 56.0625 5.449219 55.851562 4.703125 55.425781 C 3.957031 54.996094 3.414062 54.453125 3.070312 53.792969 C 2.730469 53.128906 2.582031 52.382812 2.625 51.550781 C 2.667969 50.71875 2.902344 49.878906 3.328125 49.023438 C 3.925781 47.871094 4.574219 46.632812 5.28125 45.3125 C 5.984375 43.988281 6.699219 42.644531 7.425781 41.28125 L 9.601562 37.183594 C 10.324219 35.820312 11.03125 34.515625 11.710938 33.28125 C 13.289062 30.335938 14.890625 27.390625 16.511719 24.449219 L 24.640625 40.382812 L 40.640625 10.6875 C 43.5 15.722656 46.25 20.652344 48.894531 25.472656 C 50.046875 27.519531 51.222656 29.644531 52.414062 31.839844 C 53.609375 34.039062 54.792969 36.191406 55.96875 38.304688 C 57.140625 40.414062 58.25 42.441406 59.296875 44.382812 C 60.339844 46.324219 61.269531 48.0625 62.078125 49.601562 Z M 62.078125 49.601562 "/>
</g>
</svg>
