<?xml version="1.0" encoding="UTF-8"?>
<svg xmlns="http://www.w3.org/2000/svg" xmlns:xlink="http://www.w3.org/1999/xlink" width="64px" height="64px" viewBox="0 0 64 64" version="1.1">
<g id="surface1">
<path style=" stroke:none;fill-rule:nonzero;fill:rgb(0%,57.254902%,100%);fill-opacity:1;" d="M 32 16 C 33.472656 16 34.667969 14.804688 34.667969 13.332031 L 34.667969 8 C 34.667969 6.527344 33.472656 5.332031 32 5.332031 C 30.527344 5.332031 29.332031 6.527344 29.332031 8 L 29.332031 13.332031 C 29.332031 14.804688 30.527344 16 32 16 Z M 56 29.332031 L 50.667969 29.332031 C 49.195312 29.332031 48 30.527344 48 32 C 48 33.472656 49.195312 34.667969 50.667969 34.667969 L 56 34.667969 C 57.472656 34.667969 58.667969 33.472656 58.667969 32 C 58.667969 30.527344 57.472656 29.332031 56 29.332031 Z M 16 32 C 16 30.527344 14.804688 29.332031 13.332031 29.332031 L 8 29.332031 C 6.527344 29.332031 5.332031 30.527344 5.332031 32 C 5.332031 33.472656 6.527344 34.667969 8 34.667969 L 13.332031 34.667969 C 14.804688 34.667969 16 33.472656 16 32 Z M 16.585938 13.332031 C 15.503906 12.308594 13.796875 12.359375 12.773438 13.441406 C 11.75 14.523438 11.796875 16.230469 12.878906 17.253906 L 16.71875 20.960938 C 17.242188 21.460938 17.941406 21.730469 18.667969 21.707031 C 19.390625 21.703125 20.085938 21.40625 20.585938 20.878906 C 21.621094 19.839844 21.621094 18.160156 20.585938 17.121094 Z M 45.332031 21.707031 C 46.019531 21.703125 46.679688 21.4375 47.171875 20.960938 L 51.011719 17.253906 C 51.984375 16.238281 52.003906 14.640625 51.050781 13.605469 C 50.101562 12.570312 48.507812 12.449219 47.414062 13.332031 L 43.574219 17.121094 C 42.539062 18.160156 42.539062 19.839844 43.574219 20.878906 C 44.035156 21.367188 44.664062 21.664062 45.332031 21.707031 Z M 32 48 C 30.527344 48 29.332031 49.195312 29.332031 50.667969 L 29.332031 56 C 29.332031 57.472656 30.527344 58.667969 32 58.667969 C 33.472656 58.667969 34.667969 57.472656 34.667969 56 L 34.667969 50.667969 C 34.667969 49.195312 33.472656 48 32 48 Z M 47.28125 43.039062 C 46.21875 42.015625 44.53125 42.046875 43.507812 43.105469 C 42.484375 44.167969 42.511719 45.855469 43.574219 46.878906 L 47.414062 50.667969 C 47.90625 51.144531 48.566406 51.410156 49.253906 51.414062 C 49.976562 51.417969 50.667969 51.128906 51.171875 50.613281 C 51.679688 50.113281 51.960938 49.429688 51.960938 48.71875 C 51.960938 48.007812 51.679688 47.328125 51.171875 46.828125 Z M 16.71875 43.039062 L 12.878906 46.746094 C 12.375 47.246094 12.089844 47.929688 12.089844 48.640625 C 12.089844 49.351562 12.375 50.03125 12.878906 50.535156 C 13.386719 51.050781 14.078125 51.335938 14.800781 51.332031 C 15.457031 51.339844 16.09375 51.101562 16.585938 50.667969 L 20.425781 46.960938 C 21.488281 45.9375 21.515625 44.246094 20.492188 43.1875 C 19.46875 42.125 17.78125 42.097656 16.71875 43.121094 Z M 32 21.332031 C 26.109375 21.332031 21.332031 26.109375 21.332031 32 C 21.332031 37.890625 26.109375 42.667969 32 42.667969 C 37.890625 42.667969 42.667969 37.890625 42.667969 32 C 42.667969 26.109375 37.890625 21.332031 32 21.332031 Z M 32 21.332031 "/>
</g>
</svg>
