<?xml version="1.0" encoding="UTF-8"?>
<svg xmlns="http://www.w3.org/2000/svg" xmlns:xlink="http://www.w3.org/1999/xlink" width="64px" height="64px" viewBox="0 0 64 64" version="1.1">
<g id="surface1">
<path style=" stroke:none;fill-rule:nonzero;fill:rgb(0%,57.254902%,100%);fill-opacity:1;" d="M 58.285156 52.570312 C 58.285156 53.191406 58.058594 53.726562 57.605469 54.179688 C 57.15625 54.632812 56.617188 54.855469 56 54.855469 L 39.5 54.855469 C 39.523438 55.261719 39.59375 56.304688 39.714844 57.980469 C 39.832031 59.660156 39.894531 60.953125 39.894531 61.855469 C 39.894531 62.453125 39.679688 62.957031 39.25 63.375 C 38.820312 63.792969 38.308594 64 37.714844 64 L 26.285156 64 C 25.691406 64 25.179688 63.792969 24.75 63.375 C 24.320312 62.957031 24.105469 62.453125 24.105469 61.855469 C 24.105469 60.953125 24.167969 59.660156 24.285156 57.980469 C 24.40625 56.304688 24.476562 55.261719 24.5 54.855469 L 8 54.855469 C 7.382812 54.855469 6.84375 54.632812 6.394531 54.179688 C 5.941406 53.726562 5.714844 53.191406 5.714844 52.570312 C 5.714844 51.953125 5.941406 51.417969 6.394531 50.964844 L 20.75 36.570312 L 12.570312 36.570312 C 11.953125 36.570312 11.417969 36.34375 10.964844 35.894531 C 10.511719 35.441406 10.285156 34.90625 10.285156 34.285156 C 10.285156 33.667969 10.511719 33.132812 10.964844 32.679688 L 25.320312 18.285156 L 18.285156 18.285156 C 17.667969 18.285156 17.132812 18.058594 16.679688 17.605469 C 16.226562 17.15625 16 16.617188 16 16 C 16 15.382812 16.226562 14.84375 16.679688 14.394531 L 30.394531 0.679688 C 30.84375 0.226562 31.382812 0 32 0 C 32.617188 0 33.15625 0.226562 33.605469 0.679688 L 47.320312 14.394531 C 47.773438 14.84375 48 15.382812 48 16 C 48 16.617188 47.773438 17.15625 47.320312 17.605469 C 46.867188 18.058594 46.332031 18.285156 45.714844 18.285156 L 38.679688 18.285156 L 53.035156 32.679688 C 53.488281 33.132812 53.714844 33.667969 53.714844 34.285156 C 53.714844 34.90625 53.488281 35.441406 53.035156 35.894531 C 52.582031 36.34375 52.046875 36.570312 51.429688 36.570312 L 43.25 36.570312 L 57.605469 50.964844 C 58.058594 51.417969 58.285156 51.953125 58.285156 52.570312 Z M 58.285156 52.570312 "/>
</g>
</svg>
