<svg xmlns="http://www.w3.org/2000/svg" viewBox="0 0 24 24"><path d="m23.974 11.653-.001-.008.001.012z"/><path fill="#0068B0" d="M6.267 18.242c.118.005.235.008.353.008 1.045 0 2.011-.19 2.878-.569.217-.095.427-.205.642-.328.117-.068.228-.142.338-.219l.08-.056.137-.095c.164-.12.317-.251.467-.388l.052-.051c.088-.085.176-.171.259-.26l.311-.359.118-.151.056-.083.055-.081c.462-.791 1.965-3.672 1.965-3.672v-.006l.09-.175.074-.138c.222-.411.382-.703.594-1.009l.006-.01c.493-.731 1.344-1.251 2.346-1.339 1.68-.148 3.152.978 3.287 2.513.135 1.537-1.117 2.902-2.798 3.05a3.362 3.362 0 0 1-1.034-.071l.023.004-.009.003c-1.232-.262-2.017-1.178-2.404-1.589l-1.617 3.032s.503.516.847.774a6.47 6.47 0 0 0 1.146.669c.836.379 1.812.6 2.838.601.121 0 .097 0 .222-.005 1.844-.079 3.488-.799 4.674-2.034 1.123-1.173 1.733-2.511 1.738-4.097v-.048l-.011-.262v.001a6.161 6.161 0 0 0-1.011-3.162 6.278 6.278 0 0 0-.862-1.053l-.002-.002a6.325 6.325 0 0 0-1.603-1.136l-.037-.016a6.802 6.802 0 0 0-2.988-.681h-.093c-.886 0-1.734.162-2.52.455a6.275 6.275 0 0 0-1.824 1.02c-.12.1-.227.195-.33.293l.004-.003-.085.087-.118.126h.001l-.056.056-.026.029-.14.15c-.104.119-.202.239-.296.356v-.002L12 8.315c-.192.238-.37.485-.5.707-.089.143-.176.289-.259.435l-1.147 2.365.002.001-.06.12-.126.261c-.251.519-.521 1.037-.821 1.463-.672.751-1.431 1.12-2.406 1.12-.068 0-.139-.003-.209-.008-.588-.023-1.092-.165-1.539-.435a2.62 2.62 0 0 1-.987-1.036l-.007-.014a2.723 2.723 0 0 1-.326-1.401v.005l.002-.035c.031-.775.321-1.379.904-1.898.142-.126.291-.232.446-.326l.065-.037c.434-.241.927-.362 1.492-.362l.176.005c.899.035 1.592.32 2.145.88l1.734-3.174a6.735 6.735 0 0 0-1.352-.708l-.047-.016c-.019-.007-.04-.016-.06-.022-.062-.023-.123-.046-.186-.067a7.045 7.045 0 0 0-1.689-.352l-.027-.002-.056-.007c-.088-.005-.177-.016-.265-.02a11.443 11.443 0 0 0-.292-.007h-.098a6.875 6.875 0 0 0-2.994.685A6.274 6.274 0 0 0 1.03 8.619l-.014.023A6.157 6.157 0 0 0 0 12.05v.039c-.002 1.595.568 2.996 1.701 4.173 1.184 1.236 2.72 1.901 4.566 1.98z"/><path d="M23.972 11.637v.005l.001.003zM3.476 6.688l.038-.016a.008.008 0 0 0 .004-.002l-.042.018zm3.669-.535.019.002.01.001-.029-.003zM13.045 7.551l.006-.004.007-.006zM14.829 6.583c.015-.006.031-.009.047-.015l.004-.002-.051.017zm8.142 2.235.01.017.003.004-.013-.021z"/></svg>